<svg xmlns="http://www.w3.org/2000/svg" viewBox="0 0 1200 900" role="img" aria-labelledby="title desc">
  <title id="title">Original JARVIS-style holographic interface background</title>
  <desc id="desc">An abstract cyan and gold AI interface with rings, waveforms, and circuit traces.</desc>
  <defs>
    <radialGradient id="coreGlow" cx="50%" cy="48%" r="52%">
      <stop offset="0" stop-color="#e8fbff" stop-opacity="0.95"/>
      <stop offset="0.12" stop-color="#7ee7ff" stop-opacity="0.62"/>
      <stop offset="0.38" stop-color="#2aa8ff" stop-opacity="0.22"/>
      <stop offset="1" stop-color="#001426" stop-opacity="0"/>
    </radialGradient>
    <linearGradient id="lineGlow" x1="0" x2="1" y1="0" y2="1">
      <stop offset="0" stop-color="#dffbff" stop-opacity="0.88"/>
      <stop offset="0.54" stop-color="#7ee7ff" stop-opacity="0.7"/>
      <stop offset="1" stop-color="#ffcf5a" stop-opacity="0.46"/>
    </linearGradient>
    <filter id="softGlow" x="-40%" y="-40%" width="180%" height="180%">
      <feGaussianBlur stdDeviation="8" result="blur"/>
      <feMerge>
        <feMergeNode in="blur"/>
        <feMergeNode in="SourceGraphic"/>
      </feMerge>
    </filter>
  </defs>

  <rect width="1200" height="900" fill="none"/>
  <g opacity="0.9" filter="url(#softGlow)">
    <ellipse cx="600" cy="452" rx="255" ry="255" fill="url(#coreGlow)"/>
    <circle cx="600" cy="452" r="214" fill="none" stroke="#7ee7ff" stroke-width="2.6" stroke-opacity="0.56"/>
    <circle cx="600" cy="452" r="172" fill="none" stroke="#dffbff" stroke-width="1.7" stroke-opacity="0.44" stroke-dasharray="17 18"/>
    <circle cx="600" cy="452" r="118" fill="none" stroke="#ffcf5a" stroke-width="1.7" stroke-opacity="0.34" stroke-dasharray="5 14"/>
    <circle cx="600" cy="452" r="61" fill="none" stroke="#e8fbff" stroke-width="2.2" stroke-opacity="0.62"/>
  </g>

  <g fill="none" stroke="url(#lineGlow)" stroke-linecap="round" stroke-linejoin="round">
    <path d="M364 452h472" stroke-width="2.8" stroke-opacity="0.58"/>
    <path d="M600 216v472" stroke-width="2" stroke-opacity="0.34"/>
    <path d="M454 306l292 292M746 306 454 598" stroke-width="1.7" stroke-opacity="0.32"/>

    <path d="M214 244h176l52 52h75" stroke-width="3" stroke-opacity="0.48"/>
    <path d="M242 642h150l58-58h75" stroke-width="3" stroke-opacity="0.42"/>
    <path d="M986 256H812l-52 52h-74" stroke-width="3" stroke-opacity="0.48"/>
    <path d="M958 652H806l-58-58h-73" stroke-width="3" stroke-opacity="0.42"/>

    <path d="M338 374c52-48 120-78 194-87" stroke-width="2" stroke-opacity="0.52"/>
    <path d="M862 530c-52 48-120 78-194 87" stroke-width="2" stroke-opacity="0.52"/>
    <path d="M416 699c92 46 235 58 366 0" stroke-width="2" stroke-opacity="0.28"/>
    <path d="M416 205c92-46 235-58 366 0" stroke-width="2" stroke-opacity="0.28"/>
  </g>

  <g fill="#7ee7ff" opacity="0.64">
    <circle cx="214" cy="244" r="7"/>
    <circle cx="242" cy="642" r="7"/>
    <circle cx="986" cy="256" r="7"/>
    <circle cx="958" cy="652" r="7"/>
    <circle cx="600" cy="216" r="5"/>
    <circle cx="600" cy="688" r="5"/>
  </g>

  <g opacity="0.62">
    <rect x="312" y="144" width="122" height="12" rx="6" fill="#7ee7ff" fill-opacity="0.42"/>
    <rect x="312" y="170" width="190" height="8" rx="4" fill="#dffbff" fill-opacity="0.24"/>
    <rect x="770" y="734" width="140" height="12" rx="6" fill="#ffcf5a" fill-opacity="0.36"/>
    <rect x="690" y="760" width="220" height="8" rx="4" fill="#dffbff" fill-opacity="0.22"/>
    <rect x="828" y="150" width="78" height="78" rx="14" fill="none" stroke="#7ee7ff" stroke-width="2" stroke-opacity="0.34"/>
    <rect x="292" y="676" width="78" height="78" rx="14" fill="none" stroke="#ffcf5a" stroke-width="2" stroke-opacity="0.28"/>
  </g>

  <g transform="translate(450 804)" fill="#dffbff" opacity="0.38">
    <rect x="0" y="-18" width="8" height="36" rx="4"/>
    <rect x="20" y="-33" width="8" height="66" rx="4"/>
    <rect x="40" y="-10" width="8" height="20" rx="4"/>
    <rect x="60" y="-45" width="8" height="90" rx="4"/>
    <rect x="80" y="-24" width="8" height="48" rx="4"/>
    <rect x="100" y="-58" width="8" height="116" rx="4"/>
    <rect x="120" y="-36" width="8" height="72" rx="4"/>
    <rect x="140" y="-14" width="8" height="28" rx="4"/>
    <rect x="160" y="-42" width="8" height="84" rx="4"/>
    <rect x="180" y="-26" width="8" height="52" rx="4"/>
    <rect x="200" y="-50" width="8" height="100" rx="4"/>
    <rect x="220" y="-20" width="8" height="40" rx="4"/>
    <rect x="240" y="-35" width="8" height="70" rx="4"/>
    <rect x="260" y="-12" width="8" height="24" rx="4"/>
    <rect x="280" y="-28" width="8" height="56" rx="4"/>
  </g>

  <g text-anchor="middle" font-family="Inter, Arial, sans-serif" font-weight="800" letter-spacing="18" fill="#e8fbff" opacity="0.26">
    <text x="600" y="466" font-size="54">JARVIS</text>
    <text x="600" y="520" font-size="15" letter-spacing="7" opacity="0.8">JUST A RATHER VERY INTELLIGENT SYSTEM</text>
  </g>
</svg>
